<?xml version="1.0" encoding="utf-8"?>
<!-- Generator: Adobe Illustrator 27.8.1, SVG Export Plug-In . SVG Version: 6.00 Build 0)  -->
<svg version="1.1" id="Layer_1" xmlns="http://www.w3.org/2000/svg" xmlns:xlink="http://www.w3.org/1999/xlink" x="0px" y="0px"
	 viewBox="0 0 205 31" style="enable-background:new 0 0 205 31;" xml:space="preserve">
<style type="text/css">
	.st0{fill:url(#SVGID_1_);}
	.st1{fill:#190079;}
</style>
<linearGradient id="SVGID_1_" gradientUnits="userSpaceOnUse" x1="-8.120742e-07" y1="16.8078" x2="29.631" y2="16.8078" gradientTransform="matrix(1 0 0 -1 0 32)">
	<stop  offset="0" style="stop-color:#190079"/>
	<stop  offset="0.2" style="stop-color:#1A0078"/>
	<stop  offset="0.28" style="stop-color:#210378"/>
	<stop  offset="0.33" style="stop-color:#2D0977"/>
	<stop  offset="0.37" style="stop-color:#3E1176"/>
	<stop  offset="0.41" style="stop-color:#541B75"/>
	<stop  offset="0.44" style="stop-color:#6F2774"/>
	<stop  offset="0.47" style="stop-color:#903672"/>
	<stop  offset="0.5" style="stop-color:#B54870"/>
	<stop  offset="0.52" style="stop-color:#DE5B6D"/>
	<stop  offset="0.54" style="stop-color:#FD696C"/>
	<stop  offset="0.56" style="stop-color:#DA5588"/>
	<stop  offset="0.59" style="stop-color:#BA44A2"/>
	<stop  offset="0.62" style="stop-color:#9F34B8"/>
	<stop  offset="0.65" style="stop-color:#8928CA"/>
	<stop  offset="0.69" style="stop-color:#781FD8"/>
	<stop  offset="0.74" style="stop-color:#6C18E1"/>
	<stop  offset="0.81" style="stop-color:#6515E7"/>
	<stop  offset="1" style="stop-color:#6414E9"/>
</linearGradient>
<path class="st0" d="M20.4,30.4c-0.9,0-1.8,0-2.6,0c-0.5,0-0.7-0.1-0.4-0.7c0.7-1.2,1.4-2.4,2-3.6c0.2-0.4,0.6-0.6,1-0.6
	c0.7,0,1.4,0,2.1,0c1.9-0.1,3-1.9,2.1-3.6c-1.2-2.2-2.4-4.3-3.6-6.5c-0.3-0.5-0.5-0.4-0.8,0c-1.9,3.5-3.9,6.9-5.8,10.4
	c-1.8,3.2-5.2,5-8.5,4.4c-4.8-0.9-7.4-6.2-5-10.6C3,15.7,5.2,11.9,7.4,8c1-1.9,2.1-3.7,3.1-5.5c1-1.7,2.6-2.6,4.6-2.5
	c0.1,0,0.2,0,0.2,0c0.5,0.1,0.9,0.1,1.2,0.2c0.5,0.2,0.4,0.7-0.2,1.7c-3.7,6.5-7.4,13-11,19.5c-0.4,0.7-0.7,1.4-0.5,2.3
	c0.5,1.7,2.4,2.4,4,1.3c0.5-0.3,0.9-0.8,1.2-1.3c3.3-5.9,6.6-11.7,9.9-17.6C20,6,20.1,5.8,20.1,5.7c0.3-0.5,0.5-0.6,0.8,0
	c2.6,4.6,5.2,9.1,7.7,13.7c2.8,5.1-0.6,11-6.3,11C21.7,30.4,21,30.4,20.4,30.4L20.4,30.4z"/>
<path class="st1" d="M49.4,25.6c0.1,0.2,0.2,0.4,0.2,0.6c0,0.4-0.1,0.7-0.4,0.9c-0.3,0.2-0.6,0.3-1,0.3s-0.7-0.1-0.9-0.2
	c-0.6-0.3-1.1-0.9-1.4-1.6c-0.4-0.7-0.6-1.8-0.6-3.3c0-1-0.3-1.7-0.9-2.2c-0.6-0.5-1.3-0.7-2.3-0.7h-5.9v6.6c0,0.4-0.1,0.7-0.4,1
	c-0.2,0.3-0.5,0.4-0.9,0.4c-0.5,0-0.8-0.1-1.2-0.4c-0.3-0.3-0.5-0.6-0.5-1V8.4c0-0.4,0.1-0.7,0.4-1C34,7.1,34.3,7,34.7,7h8.2
	c1.1,0,2,0.3,2.9,0.8c0.9,0.5,1.6,1.2,2.1,2.1c0.5,0.9,0.8,1.9,0.8,3.1c0,1.1-0.3,2.1-0.9,3.1c-0.6,0.9-1.3,1.7-2.3,2.1
	c0.7,0.4,1.3,0.9,1.7,1.6c0.4,0.7,0.6,1.4,0.7,2.3c0.1,1.1,0.2,1.9,0.3,2.3c0.1,0.4,0.3,0.7,0.6,0.9C49.1,25.3,49.3,25.4,49.4,25.6
	L49.4,25.6z M44.3,16.4c0.4-0.4,0.8-0.8,1.1-1.4c0.3-0.6,0.4-1.3,0.4-2c0-0.9-0.3-1.7-0.9-2.4c-0.6-0.7-1.3-1-2.1-1h-6.6V17h6.7
	C43.3,17,43.8,16.8,44.3,16.4L44.3,16.4z"/>
<path class="st1" d="M65.8,20.1c-0.3,0.2-0.6,0.4-1,0.4H54.5c0.1,1.4,0.7,2.6,1.6,3.4c0.9,0.9,2.1,1.3,3.5,1.3
	c0.9,0,1.7-0.1,2.3-0.4c0.6-0.3,1.1-0.6,1.6-1.1c0.3-0.2,0.6-0.3,0.8-0.3c0.3,0,0.6,0.1,0.8,0.4c0.2,0.2,0.3,0.5,0.3,0.8
	c0,0.4-0.2,0.8-0.6,1.1c-0.6,0.6-1.3,1-2.3,1.4c-0.9,0.4-1.9,0.6-2.9,0.6c-1.6,0-3-0.3-4.2-1c-1.2-0.7-2.1-1.6-2.8-2.8
	c-0.7-1.2-1-2.5-1-4c0-1.6,0.3-3.1,1-4.3c0.7-1.2,1.6-2.2,2.7-2.9c1.1-0.7,2.3-1,3.6-1c1.3,0,2.4,0.3,3.5,1c1.1,0.6,2,1.5,2.6,2.7
	c0.7,1.1,1,2.4,1,3.8C66.2,19.6,66,19.8,65.8,20.1L65.8,20.1z M56.2,15.3c-0.8,0.6-1.3,1.6-1.6,2.9h8.6v-0.2c-0.1-1-0.6-1.9-1.4-2.6
	c-0.8-0.7-1.8-1-2.8-1C58,14.3,57,14.6,56.2,15.3z"/>
<path class="st1" d="M92.2,18.2v7.8c0,0.4-0.1,0.7-0.4,1c-0.3,0.3-0.6,0.4-1,0.4s-0.7-0.1-1-0.4c-0.3-0.3-0.4-0.6-0.4-1v-7.8
	c0-2.6-1.1-3.8-3.2-3.8c-0.8,0-1.5,0.2-2.1,0.5c-0.6,0.3-1.1,0.8-1.4,1.4c-0.3,0.6-0.5,1.2-0.5,1.9v7.8c0,0.4-0.1,0.7-0.4,1
	c-0.3,0.3-0.6,0.4-1,0.4s-0.7-0.1-1-0.4c-0.3-0.3-0.4-0.6-0.4-1v-7.8c0-1.2-0.2-2.1-0.7-2.8c-0.5-0.7-1.3-1-2.4-1
	c-1.1,0-2.1,0.4-2.9,1.1c-0.8,0.7-1.1,1.6-1.1,2.7v7.8c0,0.4-0.1,0.7-0.4,1c-0.3,0.3-0.6,0.4-1,0.4c-0.4,0-0.7-0.1-1-0.4
	c-0.3-0.3-0.4-0.6-0.4-1V13.5c0-0.4,0.1-0.7,0.4-1c0.3-0.3,0.6-0.4,1-0.4c0.4,0,0.7,0.1,1,0.4c0.3,0.3,0.4,0.6,0.4,1v1
	c0.5-0.8,1.2-1.4,2-1.9c0.8-0.5,1.8-0.8,2.8-0.8c2.4,0,4,1.1,4.7,3.2c0.4-0.8,1.1-1.6,2.1-2.2c1-0.7,2.1-1,3.2-1
	C90.5,11.8,92.2,14,92.2,18.2L92.2,18.2z"/>
<path class="st1" d="M96.4,9.7c-0.2-0.2-0.4-0.5-0.4-1V8.3c0-0.5,0.1-0.8,0.4-1C96.7,7.1,97.1,7,97.6,7c0.5,0,0.9,0.1,1.2,0.3
	c0.2,0.2,0.4,0.5,0.4,1v0.5c0,0.5-0.1,0.8-0.4,1c-0.3,0.2-0.7,0.3-1.2,0.3C97,10,96.6,9.9,96.4,9.7z M98.6,27.1
	c-0.3,0.3-0.6,0.4-1,0.4c-0.4,0-0.7-0.1-1-0.4c-0.3-0.3-0.4-0.6-0.4-1V13.4c0-0.4,0.1-0.7,0.4-1c0.3-0.3,0.6-0.4,1-0.4
	s0.7,0.1,1,0.4c0.3,0.3,0.4,0.6,0.4,1v12.7C99,26.5,98.9,26.8,98.6,27.1z"/>
<path class="st1" d="M107.2,14.8v8.7c0,1,0.4,1.5,1.3,1.5c0.1,0,0.3,0,0.6-0.1c0.2-0.1,0.4-0.1,0.6-0.1c0.3,0,0.5,0.1,0.6,0.3
	c0.2,0.2,0.3,0.5,0.3,0.8c0,0.4-0.2,0.8-0.7,1.1c-0.5,0.3-1,0.4-1.6,0.4c-0.6,0-1.2-0.1-1.8-0.2c-0.5-0.1-1-0.5-1.4-1
	c-0.4-0.6-0.6-1.4-0.6-2.5v-8.9h-1.7c-0.4,0-0.7-0.1-0.9-0.4c-0.2-0.2-0.4-0.5-0.4-0.9c0-0.4,0.1-0.7,0.4-0.9
	c0.2-0.2,0.6-0.4,0.9-0.4h1.7V9.8c0-0.4,0.1-0.7,0.4-1c0.3-0.3,0.6-0.4,1-0.4c0.4,0,0.7,0.1,1,0.4c0.3,0.3,0.4,0.6,0.4,1v2.5h2.4
	c0.4,0,0.7,0.1,0.9,0.4c0.2,0.2,0.4,0.5,0.4,0.9c0,0.4-0.1,0.7-0.4,0.9c-0.2,0.2-0.5,0.4-0.9,0.4L107.2,14.8L107.2,14.8z"/>
<path class="st1" d="M130.4,26.2c0,0.4-0.1,0.7-0.4,1c-0.3,0.3-0.6,0.4-0.9,0.4c-0.3,0-0.5-0.1-0.7-0.3c-0.2-0.2-0.4-0.4-0.5-0.7
	l-1.8-4.3h-9.1l-1.8,4.3c-0.1,0.3-0.3,0.5-0.5,0.7c-0.2,0.2-0.5,0.2-0.7,0.2c-0.4,0-0.7-0.1-0.9-0.3s-0.3-0.5-0.3-0.9
	c0-0.1,0-0.2,0.1-0.5l7.5-18.1c0.1-0.3,0.3-0.5,0.6-0.7c0.2-0.2,0.5-0.2,0.8-0.2c0.3,0,0.6,0.1,0.8,0.2c0.2,0.2,0.4,0.4,0.5,0.7
	l7.4,17.9C130.3,25.8,130.4,26,130.4,26.2L130.4,26.2z M118,19.6h6.8l-3.4-8.2L118,19.6L118,19.6z"/>
<path class="st1" d="M131.8,24.3c0-0.4,0.2-0.7,0.6-1c0.2-0.1,0.4-0.2,0.7-0.2c0.4,0,0.7,0.1,1,0.4c0.6,0.7,1.2,1.2,1.9,1.5
	c0.7,0.3,1.5,0.5,2.4,0.5c0.7,0,1.4-0.2,2-0.5c0.6-0.3,0.8-0.8,0.8-1.6c0-0.7-0.3-1.2-0.9-1.5c-0.6-0.4-1.4-0.7-2.5-1
	c-1.1-0.3-2-0.6-2.7-0.9c-0.7-0.3-1.3-0.8-1.8-1.4c-0.5-0.6-0.7-1.4-0.7-2.4c0-0.9,0.3-1.6,0.7-2.3c0.5-0.7,1.2-1.2,2-1.6
	c0.8-0.4,1.7-0.6,2.7-0.6c1,0,1.9,0.2,2.8,0.5c0.9,0.4,1.7,0.9,2.3,1.6c0.2,0.3,0.4,0.6,0.4,0.8c0,0.3-0.2,0.6-0.5,0.9
	c-0.2,0.2-0.4,0.3-0.7,0.3c-0.4,0-0.6-0.1-0.8-0.4c-0.4-0.5-0.9-0.8-1.5-1.1c-0.6-0.3-1.3-0.4-2-0.4c-0.7,0-1.4,0.2-1.9,0.5
	c-0.5,0.3-0.8,0.8-0.8,1.5c0,0.7,0.3,1.2,0.9,1.5c0.6,0.3,1.5,0.7,2.7,1c1,0.3,1.9,0.6,2.6,0.9c0.7,0.3,1.3,0.8,1.7,1.4
	c0.5,0.6,0.7,1.4,0.7,2.4c0,0.9-0.3,1.7-0.8,2.4c-0.5,0.7-1.2,1.2-2.1,1.6c-0.8,0.4-1.8,0.5-2.7,0.5c-1.2,0-2.4-0.2-3.4-0.6
	c-1-0.4-1.9-1.1-2.7-2.1C131.9,24.8,131.8,24.5,131.8,24.3L131.8,24.3z"/>
<path class="st1" d="M145.8,24.3c0-0.4,0.2-0.7,0.6-1c0.2-0.1,0.4-0.2,0.7-0.2c0.4,0,0.7,0.1,1,0.4c0.6,0.7,1.2,1.2,1.9,1.5
	c0.7,0.3,1.5,0.5,2.4,0.5c0.7,0,1.4-0.2,2-0.5c0.6-0.3,0.8-0.8,0.8-1.6c0-0.7-0.3-1.2-0.9-1.5c-0.6-0.4-1.4-0.7-2.5-1
	c-1.1-0.3-2-0.6-2.7-0.9c-0.7-0.3-1.3-0.8-1.8-1.4c-0.5-0.6-0.7-1.4-0.7-2.4c0-0.9,0.2-1.6,0.7-2.3c0.5-0.7,1.2-1.2,2-1.6
	c0.8-0.4,1.7-0.6,2.7-0.6c1,0,1.9,0.2,2.8,0.5c0.9,0.4,1.7,0.9,2.3,1.6c0.2,0.3,0.4,0.6,0.4,0.8c0,0.3-0.2,0.6-0.5,0.9
	c-0.2,0.2-0.4,0.3-0.7,0.3c-0.4,0-0.6-0.1-0.8-0.4c-0.4-0.5-0.9-0.8-1.5-1.1c-0.6-0.3-1.3-0.4-2-0.4c-0.7,0-1.4,0.2-1.9,0.5
	c-0.5,0.3-0.8,0.8-0.8,1.5c0,0.7,0.3,1.2,0.9,1.5c0.6,0.3,1.5,0.7,2.7,1c1,0.3,1.9,0.6,2.6,0.9c0.7,0.3,1.3,0.8,1.7,1.4
	c0.5,0.6,0.7,1.4,0.7,2.4c0,0.9-0.3,1.7-0.8,2.4c-0.5,0.7-1.2,1.2-2.1,1.6c-0.8,0.4-1.8,0.5-2.7,0.5c-1.2,0-2.4-0.2-3.4-0.6
	c-1-0.4-1.9-1.1-2.7-2.1C145.9,24.8,145.8,24.5,145.8,24.3L145.8,24.3z"/>
<path class="st1" d="M173.4,12.5c0.3,0.3,0.4,0.6,0.4,1v7.8c0,2-0.6,3.6-1.7,4.7c-1.1,1.1-2.7,1.7-4.8,1.7c-2.1,0-3.6-0.6-4.7-1.7
	c-1.1-1.1-1.7-2.7-1.7-4.7v-7.8c0-0.4,0.1-0.7,0.4-1c0.3-0.3,0.6-0.4,1-0.4c0.4,0,0.7,0.1,1,0.4c0.3,0.3,0.4,0.6,0.4,1v7.8
	c0,2.6,1.2,3.8,3.6,3.8c1.2,0,2.1-0.3,2.7-1c0.6-0.6,0.9-1.6,0.9-2.9v-7.8c0-0.4,0.1-0.7,0.4-1c0.3-0.3,0.6-0.4,1-0.4
	C172.8,12.1,173.1,12.2,173.4,12.5L173.4,12.5z"/>
<path class="st1" d="M186.9,12.2c0.4,0.3,0.6,0.6,0.6,1c0,0.5-0.1,0.8-0.4,1.1c-0.2,0.2-0.5,0.4-0.9,0.4c-0.2,0-0.4-0.1-0.8-0.2
	c-0.4-0.1-0.7-0.2-1-0.2c-0.6,0-1.2,0.2-1.8,0.6c-0.6,0.4-1,1-1.4,1.7c-0.4,0.7-0.5,1.6-0.5,2.4v7.1c0,0.4-0.1,0.7-0.4,1
	c-0.3,0.3-0.6,0.4-1,0.4c-0.4,0-0.7-0.1-1-0.4c-0.3-0.3-0.4-0.6-0.4-1V13.5c0-0.4,0.1-0.7,0.4-1c0.3-0.3,0.6-0.4,1-0.4
	c0.4,0,0.7,0.1,1,0.4c0.3,0.3,0.4,0.6,0.4,1V15c0.4-1,1.1-1.7,1.9-2.3c0.9-0.6,1.8-0.9,2.9-0.9C186.1,11.7,186.6,11.9,186.9,12.2
	L186.9,12.2z"/>
<path class="st1" d="M202.5,20.1c-0.3,0.2-0.6,0.4-1,0.4h-10.3c0.1,1.4,0.7,2.6,1.6,3.4c0.9,0.9,2.1,1.3,3.5,1.3
	c0.9,0,1.7-0.1,2.3-0.4c0.6-0.3,1.1-0.6,1.6-1.1c0.3-0.2,0.6-0.3,0.8-0.3c0.3,0,0.6,0.1,0.8,0.4c0.2,0.2,0.3,0.5,0.3,0.8
	c0,0.4-0.2,0.8-0.6,1.1c-0.6,0.6-1.3,1-2.3,1.4s-1.9,0.6-2.9,0.6c-1.6,0-3-0.3-4.2-1c-1.2-0.7-2.1-1.6-2.8-2.8c-0.7-1.2-1-2.5-1-4
	c0-1.6,0.3-3.1,1-4.3c0.7-1.2,1.6-2.2,2.7-2.9c1.1-0.7,2.3-1,3.6-1c1.3,0,2.4,0.3,3.5,1c1.1,0.6,2,1.5,2.6,2.7c0.7,1.1,1,2.4,1,3.8
	C202.9,19.6,202.7,19.8,202.5,20.1L202.5,20.1z M192.9,15.3c-0.8,0.6-1.3,1.6-1.6,2.9h8.6v-0.2c-0.1-1-0.6-1.9-1.4-2.6
	c-0.8-0.7-1.8-1-2.8-1C194.7,14.3,193.7,14.6,192.9,15.3z"/>
</svg>
